<?xml version="1.0" encoding="UTF-8"?>
<svg id="Layer_1" data-name="Layer 1" xmlns="http://www.w3.org/2000/svg" xmlns:xlink="http://www.w3.org/1999/xlink" viewBox="0 0 278.9 302.08">
  <defs>
    <style>
      .cls-1 {
        fill: #c1272d;
        stroke-width: 0px;
      }

      .cls-2 {
        filter: url(#drop-shadow-4);
      }

      .cls-3 {
        filter: url(#drop-shadow-3);
      }
    </style>
    <filter id="drop-shadow-3" filterUnits="userSpaceOnUse">
      <feOffset dx="7" dy="11"/>
      <feGaussianBlur result="blur" stdDeviation="0"/>
      <feFlood flood-color="#f7931e" flood-opacity="1"/>
      <feComposite in2="blur" operator="in"/>
      <feComposite in="SourceGraphic"/>
    </filter>
    <filter id="drop-shadow-4" filterUnits="userSpaceOnUse">
      <feOffset dx="7" dy="11"/>
      <feGaussianBlur result="blur-2" stdDeviation="0"/>
      <feFlood flood-color="#fbb03b" flood-opacity="1"/>
      <feComposite in2="blur-2" operator="in"/>
      <feComposite in="SourceGraphic"/>
    </filter>
  </defs>
  <g class="cls-3">
    <path class="cls-1" d="m269.41,234.67c-2.27,7-4.32,13.15-6.15,18.46-1.84,5.31-3.58,10.86-5.22,16.66-1.64,5.8-3.27,10.9-4.88,15.31-7.17,1.31-12.92,2.06-17.26,2.26-4.34.19-9.14-.06-14.4-.75-8.18-1.09-16.36-2.97-24.54-5.65-8.18-2.68-16.57-5.85-25.19-9.51-8.61-3.66-14.91-6.14-18.91-7.44-3.99-1.3-8.41-2.27-13.26-2.92s-9.44-.89-14.08-.79c-4.64.1-8.8.48-12.49,1.12-3.69.64-6.71,1.37-9.08,2.19-2.37.82-5.47,2.1-9.3,3.85l2.29-11.42c.81-3.8,1.69-8.46,2.63-13.99l3.25-18.69c4.42-.75,7.99-1.69,10.71-2.82,2.72-1.13,5.33-2.97,7.83-5.52,2.5-2.55,4.71-5.85,6.64-9.91,1.93-4.06,3.19-8.31,3.78-12.76.19-1.41.34-3.35.46-5.8-12.47-1.35-24.1-2.43-34.88-3.24,2.28-7.1,4.59-14.68,6.95-22.75,2.35-8.07,4.4-14.76,6.13-20.08l6.5,1.02c2.12.28,4.75.58,7.9.89-.33-1.38-.77-3.49-1.32-6.34l-1.48-7.44c-.32-2.2-.55-3.98-.68-5.33-.13-1.35-.17-2.8-.12-4.33s.19-3.16.42-4.88c1.14-8.59,4.49-16.57,10.04-23.96,5.55-7.38,13.17-13.24,22.84-17.56,9.67-4.32,19.54-6.63,29.6-6.94,10.06-.31,20.91.31,32.52,1.85,7.78,1.03,15.51,2.39,23.21,4.08,7.69,1.69,17.5,4.46,29.43,8.3-.85,7.19-2.05,24.35-3.59,51.49-10.17-5.46-18.63-9.54-25.36-12.23-6.74-2.69-13.29-4.46-19.65-5.31-9.6-1.27-17.65-.28-24.14,2.97-6.5,3.26-10.19,8.2-11.07,14.84-.25,1.87-.27,3.77-.06,5.69.21,1.93.56,4.32,1.05,7.19.49,2.86.76,4.93.8,6.2l7.27.97c12.16,1.37,23.06,2.44,32.73,3.23l25.1,2.59c-1.92,5.2-4.07,11.7-6.44,19.5-2.37,7.81-4.97,15.79-7.8,23.95-7.65-1.22-14.05-2.17-19.21-2.86-10.91-1.45-21.12-2.8-30.61-4.06l-1.87,9.42c-.63,3.19-1.14,5.5-1.54,6.93-.4,1.43-.89,2.79-1.47,4.09-.58,1.3-1.3,2.63-2.15,4-.85,1.37-2.5,3.95-4.96,7.74,5.19,1.92,9.42,3.36,12.69,4.31,1.08.35,3.64,1.02,7.67,2.02s8.11,2.05,12.23,3.16c4.12,1.11,6.78,1.8,7.98,2.06,2.21.4,4.93.81,8.16,1.24,8.49,1.13,16.39,1.23,23.71.29,7.32-.93,14.2-2.46,20.66-4.58Z"/>
  </g>
  <g class="cls-2">
    <path class="cls-1" d="m174.75,169.15c-2.27,7-4.32,13.15-6.15,18.46-1.84,5.31-3.58,10.86-5.22,16.66-1.64,5.8-3.27,10.9-4.88,15.31-7.17,1.31-12.92,2.06-17.26,2.26-4.34.19-9.14-.06-14.4-.75-8.18-1.09-16.36-2.97-24.54-5.65-8.18-2.68-16.57-5.85-25.19-9.51-8.61-3.66-14.91-6.14-18.91-7.44s-8.41-2.27-13.26-2.92-9.44-.89-14.08-.79c-4.64.1-8.8.48-12.49,1.12-3.69.64-6.71,1.37-9.08,2.19-2.37.82-5.47,2.1-9.3,3.85l2.29-11.42c.81-3.8,1.69-8.46,2.63-13.99l3.25-18.69c4.42-.75,7.99-1.69,10.71-2.82,2.72-1.13,5.33-2.97,7.83-5.52,2.5-2.55,4.71-5.85,6.64-9.91s3.19-8.31,3.78-12.76c.19-1.41.34-3.35.46-5.8-12.47-1.35-24.1-2.43-34.88-3.24,2.28-7.1,4.59-14.68,6.95-22.75,2.35-8.07,4.4-14.76,6.13-20.08l6.5,1.02c2.12.28,4.75.58,7.9.89-.33-1.38-.77-3.49-1.32-6.34l-1.48-7.44c-.32-2.2-.55-3.98-.68-5.33-.13-1.35-.17-2.8-.12-4.33s.19-3.16.42-4.88c1.14-8.59,4.49-16.57,10.04-23.96,5.55-7.38,13.17-13.24,22.84-17.56C69.54,2.7,79.41.39,89.47.08c10.06-.31,20.91.31,32.52,1.85,7.78,1.03,15.51,2.39,23.21,4.08,7.69,1.69,17.5,4.46,29.43,8.3-.85,7.19-2.05,24.35-3.59,51.49-10.17-5.46-18.63-9.54-25.36-12.23-6.74-2.69-13.29-4.46-19.65-5.31-9.6-1.27-17.65-.28-24.14,2.97-6.5,3.26-10.19,8.2-11.07,14.84-.25,1.87-.27,3.77-.06,5.69.21,1.93.56,4.32,1.05,7.19.49,2.86.76,4.93.8,6.2l7.27.97c12.16,1.37,23.06,2.44,32.73,3.23l25.1,2.59c-1.92,5.2-4.07,11.7-6.44,19.5-2.37,7.81-4.97,15.79-7.8,23.95-7.65-1.22-14.05-2.17-19.21-2.86-10.91-1.45-21.12-2.8-30.61-4.06l-1.87,9.42c-.63,3.19-1.14,5.5-1.54,6.93-.4,1.43-.89,2.79-1.47,4.09-.58,1.3-1.3,2.63-2.15,4-.85,1.37-2.5,3.95-4.96,7.74,5.19,1.92,9.42,3.36,12.69,4.31,1.08.35,3.64,1.02,7.67,2.02,4.03,1,8.11,2.05,12.23,3.16,4.12,1.11,6.78,1.8,7.98,2.06,2.21.4,4.93.81,8.16,1.24,8.49,1.13,16.39,1.23,23.71.29,7.32-.93,14.2-2.46,20.66-4.58Z"/>
  </g>
</svg>