<?xml version="1.0" encoding="UTF-8"?>
<svg id="Layer_1" data-name="Layer 1" xmlns="http://www.w3.org/2000/svg" xmlns:xlink="http://www.w3.org/1999/xlink" viewBox="0 0 501.56 501.79">
  <defs>
    <style>
      .cls-1 {
        fill: #c1272d;
      }

      .cls-1, .cls-2 {
        stroke-width: 0px;
      }

      .cls-3 {
        filter: url(#drop-shadow-1);
      }

      .cls-4 {
        filter: url(#drop-shadow-2);
      }

      .cls-2 {
        fill: #fbb03b;
      }
    </style>
    <filter id="drop-shadow-1" filterUnits="userSpaceOnUse">
      <feOffset dx="7" dy="11"/>
      <feGaussianBlur result="blur" stdDeviation="0"/>
      <feFlood flood-color="#f7931e" flood-opacity="1"/>
      <feComposite in2="blur" operator="in"/>
      <feComposite in="SourceGraphic"/>
    </filter>
    <filter id="drop-shadow-2" filterUnits="userSpaceOnUse">
      <feOffset dx="7" dy="11"/>
      <feGaussianBlur result="blur-2" stdDeviation="0"/>
      <feFlood flood-color="#fbb03b" flood-opacity="1"/>
      <feComposite in2="blur-2" operator="in"/>
      <feComposite in="SourceGraphic"/>
    </filter>
  </defs>
  <polygon class="cls-2" points="252.21 61.76 301.81 3.09 325.18 76.28 393.45 41.05 387.04 117.61 463.6 111.2 428.37 179.47 501.56 202.84 442.88 252.44 501.56 302.04 428.37 325.41 463.6 393.69 387.04 387.27 393.45 463.83 325.18 428.6 301.81 501.79 252.21 443.12 202.61 501.79 179.24 428.6 110.96 463.83 117.38 387.27 40.82 393.69 76.05 325.41 2.86 302.04 61.53 252.44 2.86 202.84 76.05 179.47 40.82 111.2 117.38 117.61 110.96 41.05 179.24 76.28 202.61 3.09 252.21 61.76"/>
  <g class="cls-3">
    <path class="cls-1" d="m377.89,347.46c-2.42,7.47-4.6,14.03-6.56,19.69-1.96,5.66-3.81,11.58-5.56,17.77-1.75,6.18-3.49,11.63-5.21,16.33-7.64,1.4-13.78,2.2-18.41,2.41-4.63.21-9.75-.06-15.35-.8-8.73-1.16-17.45-3.17-26.18-6.02-8.72-2.86-17.68-6.24-26.86-10.14-9.19-3.9-15.91-6.55-20.17-7.94-4.26-1.39-8.97-2.42-14.14-3.11s-10.07-.95-15.02-.84c-4.95.11-9.39.51-13.32,1.19-3.93.69-7.16,1.46-9.69,2.33-2.53.87-5.84,2.24-9.92,4.11l2.44-12.18c.87-4.05,1.8-9.03,2.8-14.93l3.47-19.94c4.71-.8,8.52-1.8,11.42-3.01,2.9-1.2,5.68-3.17,8.35-5.88,2.66-2.72,5.02-6.24,7.08-10.57s3.4-8.87,4.03-13.61c.2-1.51.36-3.57.49-6.19-13.3-1.44-25.7-2.59-37.21-3.46,2.43-7.57,4.9-15.66,7.41-24.26,2.51-8.6,4.69-15.74,6.54-21.42l6.93,1.08c2.26.3,5.07.62,8.43.95-.36-1.47-.82-3.73-1.41-6.77l-1.58-7.94c-.35-2.35-.59-4.24-.73-5.69-.14-1.44-.18-2.98-.13-4.62s.2-3.37.44-5.2c1.22-9.16,4.78-17.68,10.71-25.55,5.92-7.88,14.04-14.12,24.36-18.73,10.32-4.61,20.84-7.08,31.58-7.41,10.74-.33,22.3.33,34.69,1.97,8.3,1.1,16.55,2.55,24.75,4.35,8.2,1.8,18.67,4.75,31.39,8.85-.91,7.67-2.19,25.97-3.83,54.92-10.85-5.82-19.87-10.17-27.05-13.05-7.19-2.87-14.17-4.76-20.96-5.66-10.24-1.36-18.82-.3-25.75,3.17-6.93,3.47-10.87,8.75-11.8,15.83-.26,1.99-.29,4.02-.07,6.07.22,2.05.59,4.61,1.12,7.66.53,3.05.81,5.26.85,6.61l7.76,1.03c12.97,1.46,24.6,2.61,34.91,3.45l26.77,2.76c-2.05,5.54-4.34,12.47-6.87,20.8-2.53,8.33-5.31,16.84-8.32,25.54-8.16-1.3-14.99-2.32-20.49-3.05l-32.65-4.33-1.99,10.05c-.67,3.41-1.22,5.87-1.64,7.39-.42,1.52-.95,2.98-1.57,4.36-.62,1.38-1.39,2.8-2.29,4.26-.91,1.46-2.67,4.21-5.29,8.26,5.54,2.05,10.05,3.58,13.54,4.59,1.16.37,3.89,1.09,8.18,2.16s8.65,2.19,13.04,3.38c4.39,1.19,7.23,1.92,8.51,2.2,2.35.42,5.26.86,8.71,1.32,9.05,1.2,17.48,1.31,25.29.31,7.81-.99,15.15-2.62,22.03-4.89Z"/>
  </g>
  <g class="cls-4">
    <path class="cls-1" d="m276.92,277.58c-2.42,7.47-4.6,14.03-6.56,19.69-1.96,5.66-3.81,11.58-5.56,17.77-1.75,6.18-3.49,11.63-5.21,16.33-7.64,1.4-13.78,2.2-18.41,2.41-4.63.21-9.75-.06-15.35-.8-8.73-1.16-17.45-3.17-26.18-6.02-8.72-2.86-17.68-6.24-26.86-10.14-9.19-3.9-15.91-6.55-20.17-7.94s-8.97-2.42-14.14-3.11-10.07-.95-15.02-.84c-4.95.11-9.39.51-13.32,1.19-3.93.69-7.16,1.46-9.69,2.33-2.53.87-5.84,2.24-9.92,4.11l2.44-12.18c.87-4.05,1.8-9.03,2.8-14.93l3.47-19.94c4.71-.8,8.52-1.8,11.42-3.01,2.9-1.2,5.68-3.17,8.35-5.88,2.66-2.72,5.02-6.24,7.08-10.57s3.4-8.87,4.03-13.61c.2-1.51.36-3.57.49-6.19-13.3-1.44-25.7-2.59-37.21-3.46,2.43-7.57,4.9-15.66,7.41-24.26,2.51-8.6,4.69-15.74,6.54-21.42l6.93,1.08c2.26.3,5.07.62,8.43.95-.36-1.47-.82-3.73-1.41-6.77l-1.58-7.94c-.35-2.35-.59-4.24-.73-5.69-.14-1.44-.18-2.98-.13-4.62s.2-3.37.44-5.2c1.22-9.16,4.78-17.68,10.71-25.55,5.92-7.88,14.04-14.12,24.36-18.73,10.32-4.61,20.84-7.08,31.58-7.41,10.74-.33,22.3.33,34.69,1.97,8.3,1.1,16.55,2.55,24.75,4.35,8.2,1.8,18.67,4.75,31.39,8.85-.91,7.67-2.19,25.97-3.83,54.92-10.85-5.82-19.87-10.17-27.05-13.05-7.19-2.87-14.17-4.76-20.96-5.66-10.24-1.36-18.82-.3-25.75,3.17-6.93,3.47-10.87,8.75-11.8,15.83-.26,1.99-.29,4.02-.07,6.07.22,2.05.59,4.61,1.12,7.66.53,3.05.81,5.26.85,6.61l7.76,1.03c12.97,1.46,24.6,2.61,34.91,3.45l26.77,2.76c-2.05,5.54-4.34,12.47-6.87,20.8-2.53,8.33-5.31,16.84-8.32,25.54-8.16-1.3-14.99-2.32-20.49-3.05-11.64-1.54-22.52-2.99-32.65-4.33l-1.99,10.05c-.67,3.41-1.22,5.87-1.64,7.39-.42,1.52-.95,2.98-1.57,4.36-.62,1.38-1.39,2.8-2.29,4.26-.91,1.46-2.67,4.21-5.29,8.26,5.54,2.05,10.05,3.58,13.54,4.59,1.16.37,3.89,1.09,8.18,2.16,4.3,1.06,8.65,2.19,13.04,3.38,4.39,1.19,7.23,1.92,8.51,2.2,2.35.42,5.26.86,8.71,1.32,9.05,1.2,17.48,1.31,25.29.31,7.81-.99,15.15-2.62,22.03-4.89Z"/>
  </g>
</svg>